<svg xmlns="http://www.w3.org/2000/svg" viewBox="0 0 270.5 35"><defs><style>.cls-1{fill:none;stroke:#58b33f;stroke-miterlimit:10}</style></defs><g id="Слой_2" data-name="Слой 2"><g id="Как_добраться" data-name="Как добраться"><g id="Имг_телефон" data-name="Имг телефон"><path class="cls-1" d="M.5 28.87V3.08A2.59 2.59 0 013.08.5h14.21a2.58 2.58 0 012.58 2.58v28.54"/><path class="cls-1" d="M.5 28.37v3.55a2.59 2.59 0 002.58 2.58H270.5"/><circle class="cls-1" cx="10.19" cy="30.33" r="1.29"/><path class="cls-1" d="M.58 6.21h19.29M8.33 3.62h3.79M7.44 16.57l.75-.76a.43.43 0 00.08-.47 7.24 7.24 0 01-.59-2.59.42.42 0 00-.41-.4H5.45a.42.42 0 00-.42.42V13a10.28 10.28 0 009.68 9.88h.2a.42.42 0 00.42-.42v-1.73a.4.4 0 00-.4-.41 6.53 6.53 0 01-2.42-.6.41.41 0 00-.46.08l-.71.72"/></g></g></g></svg>