<svg id="Слой_1" data-name="Слой 1" xmlns="http://www.w3.org/2000/svg" viewBox="0 0 50 50"><defs><style>.cls-1{fill:#ccccd9}</style></defs><g id="Сгруппировать_539" data-name="Сгруппировать 539"><path class="cls-1" d="M31.62 49.65H18.38V30.73h13.24zm-11.85-1.38h10.46V32.12H19.77z"/><path class="cls-1" d="M46.29 15.73V10.1L25 0 3.71 10.1v5.63l3.89-1.84v34H4.75V50h40.57v-2.08H42.4v-34zm-40.5-4.32L25 2.3l19.21 9.11v1L25 3.34 5.79 12.45zM41 47.92H9V13.23l16-7.59 16 7.59z"/><path class="cls-1" d="M32.69 32.12H17.31v-3.53h15.38zm-14-1.39H31.3V30H18.7zm6.31-9.1a5.79 5.79 0 115.78-5.79A5.79 5.79 0 0125 21.63zm0-10.19a4.4 4.4 0 104.4 4.4 4.41 4.41 0 00-4.4-4.4z"/><path class="cls-1" d="M25 19.2a3.36 3.36 0 113.36-3.36A3.36 3.36 0 0125 19.2zm0-6a2.67 2.67 0 102.67 2.67 2.68 2.68 0 00-2.67-2.7z"/></g></svg>