<svg width="21" height="20" viewBox="0 0 21 20" fill="none" xmlns="http://www.w3.org/2000/svg">
<path fill-rule="evenodd" clip-rule="evenodd" d="M11 3.25C11 2.83579 10.6642 2.5 10.25 2.5H5.96C3.49681 2.5 1.5 4.49681 1.5 6.96V14.04C1.5 16.5032 3.49681 18.5 5.96 18.5H13.04C15.5032 18.5 17.5 16.5032 17.5 14.04V10.75C17.5 10.3358 17.1642 10 16.75 10C16.3358 10 16 10.3358 16 10.75V14.04C16 15.6748 14.6748 17 13.04 17H5.96C4.32524 17 3 15.6748 3 14.04V6.96C3 5.32524 4.32524 4 5.96 4H10.25C10.6642 4 11 3.66421 11 3.25Z" fill="#27BA36"/>
<path d="M11.5404 7.54038C11.2865 7.79422 11.2865 8.20578 11.5404 8.45962C11.7942 8.71346 12.2058 8.71346 12.4596 8.45962L11.5404 7.54038ZM19.7211 0.928932C19.7211 0.569947 19.4301 0.278932 19.0711 0.278932L13.2211 0.278932C12.8621 0.278932 12.5711 0.569947 12.5711 0.928932C12.5711 1.28792 12.8621 1.57893 13.2211 1.57893L18.4211 1.57893L18.4211 6.77893C18.4211 7.13792 18.7121 7.42893 19.0711 7.42893C19.4301 7.42893 19.7211 7.13792 19.7211 6.77893L19.7211 0.928932ZM12.4596 8.45962L19.5307 1.38855L18.6114 0.469313L11.5404 7.54038L12.4596 8.45962Z" fill="#27BA36"/>
</svg>
