<svg id="Слой_1" data-name="Слой 1" xmlns="http://www.w3.org/2000/svg" viewBox="0 0 50 50"><defs><style>.cls-1{fill:#2d2d2e}.cls-2{fill:#47bf26}</style></defs><g id="Компонент_3_1" data-name="Компонент 3 1"><path class="cls-1" d="M31.6 49.66H18.41V30.8H31.6zm-11.82-1.38h10.44v-16.1H19.78z"/><path class="cls-1" d="M32.66 32.18H17.34v-3.52h15.32zM18.72 30.8h12.56V30H18.72zM25 21.72A5.77 5.77 0 1130.76 16 5.76 5.76 0 0125 21.72zm0-10.15A4.39 4.39 0 1029.38 16 4.39 4.39 0 0025 11.57z"/><path class="cls-1" d="M25 19.31A3.35 3.35 0 1128.35 16 3.36 3.36 0 0125 19.31zm0-6A2.66 2.66 0 1027.66 16 2.66 2.66 0 0025 13.3z"/><path class="cls-2" d="M12.37 7.76h-1.38V0h5.54v5.68h-1.38v-4.3h-2.78v6.38z"/><path class="cls-1" d="M27.75 41.47A1.25 1.25 0 1129 40.22a1.25 1.25 0 01-1.25 1.25zm0-1.81a.56.56 0 10.56.56.56.56 0 00-.56-.56z"/><path class="cls-2" d="M46.22 15.85v-5.62L25 .17 3.78 10.23v5.62L7.66 14v33.93H4.82V50h40.43v-2.07h-2.91V14zM9 21.38h4.31v1.38H9zm2.41 3.45v-1.38h4.49v1.38zM9 23.45h1.72v1.38H9zm32 17.24h-4.37v-1.38H41zm0-2.07h-1.79v-1.38H41zm0-2.07h-4.72v.69h2.24v1.38h-5v.69h2.42v1.38h-1v.69H41v6.55H9V25.52h9.31v-.69h-1.68v-1.38h3.1v-.69H14v-1.38h2.24v-.69H9v-7.33l16-7.57 16 7.57zM25 3.5L5.85 12.58v-1L25 2.46l19.15 9.08v1z"/><g id="Сгруппировать_537" data-name="Сгруппировать 537"><path class="cls-1" transform="rotate(-45 24.998 16.195)" d="M24.74 14.73h.52v2.95h-.52z"/><path class="cls-1" transform="rotate(-45.01 25.28 15.225)" d="M25.03 14.44h.52v1.57h-.52z"/></g></g></svg>