<svg width="328" height="332" viewBox="0 0 328 332" fill="none" xmlns="http://www.w3.org/2000/svg">
<g filter="url(#filter0_d_14_62)">
<path fill-rule="evenodd" clip-rule="evenodd" d="M12.538 152.931C11.9637 153.522 11.0193 153.539 10.4239 152.969L5.09002 147.858C4.48915 147.282 4.47184 146.327 5.05146 145.73L146.058 0.455269C146.341 0.164238 146.729 0 147.134 0H202.5C203.328 0 204 0.671574 204 1.5V5.68667C204 6.51509 203.328 7.18667 202.5 7.18667H154.634C154.229 7.18667 153.841 7.35091 153.558 7.64194L134.409 27.3706C134.139 27.6491 133.987 28.0215 133.985 28.4095L133.506 152.437C133.503 153.265 134.172 153.94 135 153.943L161.243 154.039C162.073 154.043 162.748 153.37 162.748 152.539V80.383C162.748 79.5546 163.42 78.883 164.248 78.883H235.865C236.693 78.883 237.365 78.2114 237.365 77.383V5.5C237.365 4.67157 238.036 4 238.865 4H322.5C323.328 4 324 4.67157 324 5.5V322.5C324 323.328 323.328 324 322.5 324H5.5C4.67157 324 4 323.328 4 322.5V230.149C4 229.321 4.67157 228.649 5.5 228.649H39.5C40.3284 228.649 41 227.977 41 227.149V127.306C41 125.959 39.3619 125.295 38.4236 126.261L12.538 152.931ZM51.3342 227.141C51.3295 227.972 52.0025 228.649 52.8342 228.649H85.6299C86.4583 228.649 87.1299 227.977 87.1299 227.149V155.272C87.1299 154.441 87.8048 153.768 88.6354 153.772L124.494 153.904C125.325 153.907 126 153.234 126 152.404V39.7333C126 38.3861 124.362 37.7219 123.424 38.6885L52.4007 111.861C52.1311 112.139 51.9793 112.51 51.9771 112.898L51.3342 227.141ZM29.5 300C28.6716 300 28 299.328 28 298.5V253.922C28 253.09 28.6772 252.417 29.5092 252.422L107.863 252.904C108.695 252.91 109.373 252.237 109.373 251.404V178.775C109.373 177.947 110.044 177.275 110.873 177.275H181.402C182.23 177.275 182.902 176.604 182.902 175.775V103.638C182.902 102.809 183.574 102.138 184.402 102.138H254.931C255.76 102.138 256.431 101.466 256.431 100.638V28.5C256.431 27.6716 257.103 27 257.931 27H301.5C302.328 27 303 27.6716 303 28.5V298.5C303 299.328 302.328 300 301.5 300H29.5Z" fill="#707070"/>
</g>
<defs>
<filter id="filter0_d_14_62" x="0" y="0" width="328" height="332" filterUnits="userSpaceOnUse" color-interpolation-filters="sRGB">
<feFlood flood-opacity="0" result="BackgroundImageFix"/>
<feColorMatrix in="SourceAlpha" type="matrix" values="0 0 0 0 0 0 0 0 0 0 0 0 0 0 0 0 0 0 127 0" result="hardAlpha"/>
<feOffset dy="4"/>
<feGaussianBlur stdDeviation="2"/>
<feComposite in2="hardAlpha" operator="out"/>
<feColorMatrix type="matrix" values="0 0 0 0 0 0 0 0 0 0 0 0 0 0 0 0 0 0 0.25 0"/>
<feBlend mode="normal" in2="BackgroundImageFix" result="effect1_dropShadow_14_62"/>
<feBlend mode="normal" in="SourceGraphic" in2="effect1_dropShadow_14_62" result="shape"/>
</filter>
</defs>
</svg>
