<svg width="328" height="328" viewBox="0 0 328 328" fill="none" xmlns="http://www.w3.org/2000/svg">
<g filter="url(#filter0_d_14_89)">
<path fill-rule="evenodd" clip-rule="evenodd" d="M5.5 0C4.67157 0 4 0.671569 4 1.5V318.5C4 319.328 4.67157 320 5.5 320H322.5C323.328 320 324 319.328 324 318.5V1.5C324 0.671573 323.328 0 322.5 0H5.5ZM29 23C28.1716 23 27.5 23.6716 27.5 24.5V295.5C27.5 296.328 28.1716 297 29 297H300C300.828 297 301.5 296.328 301.5 295.5V24.5C301.5 23.6716 300.828 23 300 23H29ZM212.5 0V197H170.5V212H212.5V316H239.5V119.5H317V104H239.5V0H212.5ZM4 196.5H93V150H104.5V208.5H4V196.5Z" fill="#707070"/>
</g>
<defs>
<filter id="filter0_d_14_89" x="0" y="0" width="328" height="328" filterUnits="userSpaceOnUse" color-interpolation-filters="sRGB">
<feFlood flood-opacity="0" result="BackgroundImageFix"/>
<feColorMatrix in="SourceAlpha" type="matrix" values="0 0 0 0 0 0 0 0 0 0 0 0 0 0 0 0 0 0 127 0" result="hardAlpha"/>
<feOffset dy="4"/>
<feGaussianBlur stdDeviation="2"/>
<feComposite in2="hardAlpha" operator="out"/>
<feColorMatrix type="matrix" values="0 0 0 0 0 0 0 0 0 0 0 0 0 0 0 0 0 0 0.25 0"/>
<feBlend mode="normal" in2="BackgroundImageFix" result="effect1_dropShadow_14_89"/>
<feBlend mode="normal" in="SourceGraphic" in2="effect1_dropShadow_14_89" result="shape"/>
</filter>
</defs>
</svg>
