<svg width="328" height="327" viewBox="0 0 328 327" fill="none" xmlns="http://www.w3.org/2000/svg">
<g filter="url(#filter0_d_14_132)">
<path fill-rule="evenodd" clip-rule="evenodd" d="M4 278V20C4 8.9543 12.9543 0 24 0H304C315.046 0 324 8.95431 324 20V278C324 289.046 315.046 298 304 298H284V318C284 318.552 283.552 319 283 319H259C258.448 319 258 318.552 258 318V298H70.5V317.966C70.5 318.518 70.0523 318.966 69.5 318.966H45.5C44.9477 318.966 44.5 318.518 44.5 317.966V298H24C12.9543 298 4 289.046 4 278ZM17 198V23C17 17.4772 21.4772 13 27 13H301C306.523 13 311 17.4771 311 23V198H294.5V172C294.5 153 281 142.5 262 142.5H256V119.5C256 111.5 252.522 106 244.572 106L189.918 106C181.969 106 177 111.5 177 119.5L177 142.5H150V119.5C150 111.5 146.522 106 138.572 106L83.9182 106C75.9686 106 71 111.5 71 119.5L71 142.5H66C47.5 142.5 34.9999 153 35 172V198H17ZM284 175V198H44L44 175C44 160 54 152.5 69 152.5C69 152.5 244 152 259 152C274 152 284 160 284 175ZM29.5 225V270C29.5 270.552 29.9477 271 30.5 271H297.5C298.052 271 298.5 270.552 298.5 270V225C298.5 224.448 298.052 224 297.5 224H30.5C29.9477 224 29.5 224.448 29.5 225ZM53.5 306.08C53.5 305.527 53.9477 305.08 54.5 305.08H61C61.5523 305.08 62 305.527 62 306.08V308.886C62 309.439 61.5523 309.886 61 309.886H54.5C53.9477 309.886 53.5 309.439 53.5 308.886V306.08ZM267 306.381C267 305.829 267.448 305.381 268 305.381H274.5C275.052 305.381 275.5 305.829 275.5 306.381V309.095C275.5 309.648 275.052 310.095 274.5 310.095H268C267.448 310.095 267 309.648 267 309.095V306.381ZM247 137H186V120C186 117 187.906 115 190.766 115H242.234C245.094 115 247 117 247 120V137ZM141 137H80V120C80 117 81.9062 115 84.7656 115H136.234C139.094 115 141 117 141 120V137Z" fill="#707070"/>
</g>
<defs>
<filter id="filter0_d_14_132" x="0" y="0" width="328" height="327" filterUnits="userSpaceOnUse" color-interpolation-filters="sRGB">
<feFlood flood-opacity="0" result="BackgroundImageFix"/>
<feColorMatrix in="SourceAlpha" type="matrix" values="0 0 0 0 0 0 0 0 0 0 0 0 0 0 0 0 0 0 127 0" result="hardAlpha"/>
<feOffset dy="4"/>
<feGaussianBlur stdDeviation="2"/>
<feComposite in2="hardAlpha" operator="out"/>
<feColorMatrix type="matrix" values="0 0 0 0 0 0 0 0 0 0 0 0 0 0 0 0 0 0 0.25 0"/>
<feBlend mode="normal" in2="BackgroundImageFix" result="effect1_dropShadow_14_132"/>
<feBlend mode="normal" in="SourceGraphic" in2="effect1_dropShadow_14_132" result="shape"/>
</filter>
</defs>
</svg>
