<svg width="388" height="385" viewBox="0 0 388 385" fill="none" xmlns="http://www.w3.org/2000/svg">
<g filter="url(#filter0_d_14_30)">
<path fill-rule="evenodd" clip-rule="evenodd" d="M299.107 64.2033C299.696 63.6209 299.702 62.6711 299.119 62.082L289.152 52H325.5C326.328 52 327 52.6716 327 53.5V245.5C327 246.328 326.328 247 325.5 247H263.311C262.481 247 261.808 246.326 261.811 245.495L262.378 64.1228C262.382 62.7846 264.004 62.1212 264.945 63.0729L281.341 79.6581C281.923 80.2473 282.873 80.2527 283.462 79.6703L299.107 64.2033ZM251 247C251.828 247 252.5 246.328 252.5 245.5V53.5C252.5 52.6716 251.828 52 251 52H62.5001C61.6716 52 61.0001 52.6716 61.0001 53.5V219.534L34.0001 246.847V26.5C34.0001 25.6716 34.6716 25 35.5001 25H227.305L249.933 47.8888C250.876 48.8421 252.5 48.1747 252.5 46.8342V26.5C252.5 25.6716 251.828 25 251 25H227.305L220.978 18.5994C220.395 18.0102 220.401 17.0605 220.99 16.4781L236.635 1.0111C237.224 0.42868 238.174 0.43412 238.756 1.02325L262.432 24.9714C262.45 24.9897 262.474 25 262.5 25V25H352.5C353.328 25 354 25.6716 354 26.5V227.615L337.362 244.445C336.426 245.393 337.097 247 338.429 247H352.5C353.328 247 354 246.328 354 245.5V227.615L365.416 216.067C365.998 215.478 366.948 215.472 367.537 216.055L383.183 231.521C383.772 232.103 383.778 233.053 383.195 233.642L354 263.176V263C354 262.172 353.328 261.5 352.5 261.5H328.5C327.672 261.5 327 262.172 327 263V290.488L322.834 294.703C322.251 295.292 321.302 295.298 320.713 294.715L305.067 279.249C304.478 278.666 304.472 277.717 305.055 277.127L317.978 264.055C318.914 263.107 318.243 261.5 316.911 261.5H263.256C262.43 261.5 261.759 262.169 261.756 262.995L261.589 316.586C261.586 317.416 262.259 318.091 263.089 318.091H325.5C326.328 318.091 327 317.419 327 316.591V290.488L354 263.176V343.5C354 344.328 353.328 345 352.5 345H282.266L264.121 326.646C263.18 325.694 261.558 326.357 261.554 327.695L261.505 343.495C261.502 344.326 262.174 345 263.005 345H282.266L299.197 362.125C299.779 362.715 299.774 363.664 299.184 364.247L283.833 379.423C283.244 380.006 282.294 380 281.712 379.411L247.692 345H251C251.828 345 252.5 344.328 252.5 343.5V319.591C252.5 318.762 251.828 318.091 251 318.091H221.09V318.091C221.04 318.041 221.041 317.96 221.091 317.911L237.418 301.769C238.007 301.186 238.957 301.192 239.539 301.781L249.933 312.295C250.876 313.248 252.5 312.581 252.5 311.24V263C252.5 262.172 251.828 261.5 251 261.5H62.5001C61.6716 261.5 61.0001 262.172 61.0001 263V316.591C61.0001 317.419 61.6716 318.091 62.5001 318.091H221.09L247.692 345H35.5001C34.6716 345 34.0001 344.328 34.0001 343.5V282.407L52.1427 264.055C53.0793 263.107 52.4081 261.5 51.0759 261.5H35.5001C34.6716 261.5 34.0001 262.172 34.0001 263V282.407L22.8338 293.703C22.2514 294.292 21.3016 294.298 20.7125 293.715L5.0668 278.249C4.47765 277.666 4.47218 276.717 5.05459 276.127L34.0001 246.847V246.847C34.0001 246.931 34.0687 247 34.1534 247H59.5001C60.3285 247 61.0001 246.328 61.0001 245.5V219.534L65.4159 215.067C65.9983 214.478 66.9481 214.472 67.5372 215.055L83.1829 230.521C83.772 231.103 83.7775 232.053 83.1951 232.642L71.5272 244.445C70.5906 245.393 71.2617 247 72.5939 247H251ZM289.152 52L265.055 27.6254C264.114 26.6737 262.493 27.337 262.489 28.6753L262.42 50.4953C262.418 51.3256 263.09 52 263.92 52H289.152Z" fill="#707070"/>
</g>
<defs>
<filter id="filter0_d_14_30" x="0.621338" y="0.57782" width="387.007" height="387.279" filterUnits="userSpaceOnUse" color-interpolation-filters="sRGB">
<feFlood flood-opacity="0" result="BackgroundImageFix"/>
<feColorMatrix in="SourceAlpha" type="matrix" values="0 0 0 0 0 0 0 0 0 0 0 0 0 0 0 0 0 0 127 0" result="hardAlpha"/>
<feOffset dy="4"/>
<feGaussianBlur stdDeviation="2"/>
<feComposite in2="hardAlpha" operator="out"/>
<feColorMatrix type="matrix" values="0 0 0 0 0 0 0 0 0 0 0 0 0 0 0 0 0 0 0.25 0"/>
<feBlend mode="normal" in2="BackgroundImageFix" result="effect1_dropShadow_14_30"/>
<feBlend mode="normal" in="SourceGraphic" in2="effect1_dropShadow_14_30" result="shape"/>
</filter>
</defs>
</svg>
